# AST/ASF file generated using VICON BodyLanguage
# -----------------------------------------------
:version 1.10
:name VICON
:units
  mass 1.0
  length 0.45
  angle deg
:documentation
   .ast/.asf automatically generated from VICON data using
   VICON BodyBuilder and BodyLanguage model FoxedUp or BRILLIANT.MOD
:root
   order TX TY TZ RX RY RZ
   axis XYZ
   position 0 0 0  
   orientation 0 0 0 
:bonedata
  begin
     id 1 
     name lhipjoint
     direction 0.756833 -0.6125 0.228138 
     length 2.53827 
     axis 0 0 0  XYZ
  end
  begin
     id 2 
     name lfemur
     direction 0.34202 -0.939693 0  
     length 6.51821  
     axis 0 0 20  XYZ
    dof rx ry rz
    limits (-160.0 20.0)
           (-70.0 70.0)
           (-60.0 70.0)
  end
  begin
     id 3 
     name ltibia
     direction 0.34202 -0.939693 0   
     length 6.99902   
     axis 0 0 20   XYZ
    dof rx
    limits (-10.0 170.0)
  end
  begin
     id 4 
     name lfoot
     direction 0.0951515 -0.261427 0.960522   
     length 1.92102   
     axis -90 7.62852e-016 20   XYZ
    dof rx rz
    limits (-45.0 90.0)
           (-70.0 20.0)
  end
  begin
     id 5 
     name ltoes
     direction 1.53539e-011 -4.21781e-011 1   
     length 0.964376   
     axis -90 7.62852e-016 20   XYZ
    dof rx
    limits (-90.0 20.0)
  end
  begin
     id 6 
     name rhipjoint
     direction -0.752153 -0.617542 0.230017   
     length 2.51754  
     axis 0 0 0  XYZ 
  end
  begin
     id 7 
     name rfemur
     direction -0.34202 -0.939693 0   
     length 6.82377   
     axis 0 0 -20   XYZ
    dof rx ry rz
    limits (-160.0 20.0)
           (-70.0 70.0)
           (-70.0 60.0)
  end
  begin
     id 8 
     name rtibia
     direction -0.34202 -0.939693 0   
     length 6.98689   
     axis 0 0 -20   XYZ
    dof rx
    limits (-10.0 170.0)
 end
 begin
     id 9 
     name rfoot
     direction -0.0900426 -0.24739 0.964723   
     length 2.03215  
     axis -90 -7.62852e-016 -20   XYZ
    dof rx rz
    limits (-45.0 90.0)
           (-20.0 70.0)
  end
  begin
     id 10 
     name rtoes
     direction -1.53466e-011 -4.22206e-011 1   
     length 1.0197   
     axis -90 -7.62852e-016 -20   XYZ
    dof rx
    limits (-90.0 20.0)
  end
  begin
     id 11 
     name lowerback
     direction 0.0184183 0.995705 -0.0907278   
     length 2.019   
     axis 0 0 0   XYZ
    dof rx ry rz
    limits (-20.0 45.0)
           (-30.0 30.0)
           (-30.0 30.0)
  end
  begin
     id 12 
     name upperback
     direction 0.00281055 0.998777 0.0493607   
     length 1.99623   
     axis 0 0 0   XYZ
    dof rx ry rz
    limits (-20.0 45.0)
           (-30.0 30.0)
           (-30.0 30.0)
  end
  begin
     id 13 
     name thorax
     direction -0.00665507 0.995706 0.092331   
     length 2.02811   
     axis 0 0 0   XYZ
    dof rx ry rz
    limits (-20.0 45.0)
           (-30.0 30.0)
           (-30.0 30.0)
  end
  begin
     id 14 
     name lowerneck
     direction -0.0960965 0.994358 0.0449225   
     length 1.71265   
     axis 0 0 0   XYZ
    dof rx ry rz
    limits (-20.0 45.0)
           (-30.0 30.0)
           (-30.0 30.0)
  end
  begin
     id 15 
     name upperneck
     direction 0.13642 0.985357 -0.102278   
     length 1.73016   
     axis 0 0 0   XYZ
    dof rx ry rz
    limits (-20.0 45.0)
           (-30.0 30.0)
           (-30.0 30.0)
  end
  begin
     id 16
     name head
     direction 0.0556079 0.997632 -0.040479  
     length 1.74275  
     axis 0 0 0   XYZ
    dof rx ry rz
    limits (-20.0 45.0)
           (-30.0 30.0)
           (-30.0 30.0)
  end
  begin
     id 17 
     name lclavicle
     direction 0.90877 0.417247 -0.00652364  
     length 3.25514  
     axis 0 0 0   XYZ
    dof ry rz
    limits (-20.0 10.0)
           (0.0 20.0)
  end
  begin
     id 18 
     name lhumerus
     direction 1 -4.48949e-011 8.31417e-028   
     length 4.84834   
     axis 180 -30 -90   XYZ
    dof rx ry rz
    limits (-60.0 90.0)
           (-90.0 90.0)
           (-90.0 90.0)
  end
  begin
     id 19
     name lradius
     direction 1 -4.48984e-011 3.45616e-027   
     length 2.99713   
     axis 180 -30 -90   XYZ
    dof rx
    limits (-10.0 170.0)
  end
  begin
     id 20
     name lwrist
     direction 1 -4.4891e-011 4.0479e-027   
     length 1.49857   
     axis -1.61768e-015 90 90   XYZ
    dof ry
    limits (-180.0 0.0)
 end
  begin
     id 21 
     name lhand
     direction 1 -4.49025e-011 8.0958e-027   
     length 0.693987   
     axis -5.16581e-015 90 90   XYZ
    dof rx rz
    limits (-90.0 90.0)
           (-45.0 45.0)
  end
  begin
     id 22 
     name lfingers
     direction 1 -4.4888e-011 1.61916e-026   
     length 0.55951   
     axis -1.03316e-014 90 90   XYZ
    dof rx
    limits (0.0 90.0)
  end
  begin
     id 23
     name lthumb
     direction 0.707107 -6.3493e-011 0.707107   
     length 0.803348   
     axis -90 45 2.85299e-015   XYZ
    dof rx rz
    limits (-45.0 45.0)
           (-45.0 45.0)
  end
  begin
     id 24 
     name rclavicle
     direction -0.906655 0.41906 0.0486307   
     length 3.3311  
     axis 0 0 0   XYZ 
    dof ry rz
    limits (-10.0 20.0)
           (-20.0 0.0)
  end
  begin
     id 25 
     name rhumerus
     direction -1 -4.48959e-011 6.37764e-018  
     length 4.93457   
     axis 180 30 90   XYZ
    dof rx ry rz
    limits (-90.0 60.0)
           (-90.0 90.0)
           (-90.0 90.0)
  end
  begin
     id 26 
     name rradius
     direction -1 -4.48957e-011 2.20847e-027   
     length 3.3443   
     axis 180 30 90   XYZ
    dof rx
    limits (-10.0 170.0)
  end
  begin
     id 27 
     name rwrist
     direction -1 -4.49008e-011 4.0479e-027   
     length 1.67215   
     axis -1.61768e-015 -90 -90   XYZ
    dof ry
    limits (-180.0 0.0)
  end
  begin
     id 28
     name rhand
     direction -1 -4.49013e-011 8.0958e-027   
     length 0.677363   
     axis -5.16581e-015 -90 -90   XYZ
    dof rx rz
    limits (-90.0 90.0)
           (-45.0 45.0)
  end
  begin
     id 29
     name rfingers
     direction -1 -4.48832e-011 1.61916e-026   
     length 0.546107   
     axis -1.03316e-014 -90 -90   XYZ
    dof rx
    limits (0.0 90.0)
  end
  begin
     id 30
     name rthumb
     direction -0.707107 -6.34895e-011 0.707107   
     length 0.784104   
     axis -90 -45 -2.85299e-015   XYZ
    dof rx rz
    limits (-45.0 45.0)
           (-45.0 45.0)
  end
:hierarchy
  begin
    root lhipjoint rhipjoint lowerback
    lhipjoint lfemur
    lfemur ltibia
    ltibia lfoot
    lfoot ltoes
    rhipjoint rfemur
    rfemur rtibia
    rtibia rfoot
    rfoot rtoes
    lowerback upperback
    upperback thorax
    thorax lowerneck lclavicle rclavicle
    lowerneck upperneck
    upperneck head
    lclavicle lhumerus
    lhumerus lradius
    lradius lwrist
    lwrist lhand lthumb
    lhand lfingers
    rclavicle rhumerus
    rhumerus rradius
    rradius rwrist
    rwrist rhand rthumb
    rhand rfingers
  end

#!OML:ASF H:\Terrain\Patient Classification 1\junglegym\FridayTest\junglegym.ASF
:FULLY-SPECIFIED
:DEGREES
308
root 8.98432 16.6595 17.3015 4.0449 -1.49705 -5.82256
lowerback 2.64811 -0.130123 4.70919
upperback -3.43101 0.170231 2.35909
thorax -5.04048 -0.0435463 -0.204086
lowerneck -5.37244 -1.16639 -13.3909
upperneck 12.1373 -1.82685 12.9339
head 4.71045 -0.765463 6.20543
rclavicle 5.31128e-015 -1.25234e-014
rhumerus -32.3721 -3.83062 -80.8976
rradius 20.9495
rwrist 7.44412
rhand -17.2673 26.4737
rfingers 7.12502
rthumb 8.97744 -3.31525
lclavicle 5.31128e-015 -1.25234e-014
lhumerus -41.7349 4.43783 81.5335
lradius 23.1749
lwrist -28.2651
lhand -2.46554 21.0956
lfingers 7.12502
lthumb 23.2268 49.7149
rfemur -13.5359 3.96348 32.3951
rtibia 26.7977
rfoot -12.5546 -9.26123
rtoes 12.1138
lfemur -35.298 2.56601 -15.8627
ltibia 71.6967
lfoot 3.3532 1.31485
ltoes -5.48444
309
root 8.9897 16.6448 17.4855 3.98953 -1.50623 -5.49206
lowerback 2.66806 -0.0544343 4.60444
upperback -3.36658 0.253971 2.12235
thorax -4.97924 -0.00112829 -0.39757
lowerneck -5.42474 -1.18268 -13.3104
upperneck 12.0389 -1.85843 13.0529
head 4.69368 -0.768701 6.22721
rclavicle 7.7526e-015 -7.7526e-015
rhumerus -31.7352 -3.02345 -81.4875
rradius 21.9055
rwrist 6.38752
rhand -17.5992 26.7051
rfingers 7.12502
rthumb 8.65717 -3.09742
lclavicle 7.7526e-015 -7.7526e-015
lhumerus -42.3944 3.58649 82.0004
lradius 23.7079
lwrist -27.5972
lhand -1.9906 21.2921
lfingers 7.12502
lthumb 23.6824 49.8532
rfemur -12.8468 3.7774 32.0542
rtibia 27.0461
rfoot -13.7315 -9.07981
rtoes 14.3741
lfemur -36.0443 2.07103 -16.3111
ltibia 70.2972
lfoot 2.40621 1.69919
ltoes -8.59941
310
root 8.99327 16.6252 17.6655 4.05038 -1.55898 -5.18532
lowerback 2.70199 0.0136064 4.35355
upperback -3.37004 0.330007 2.01993
thorax -4.99813 0.0434176 -0.369091
lowerneck -5.36964 -1.16769 -13.4857
upperneck 11.9147 -1.83994 13.2402
head 4.64616 -0.758495 6.31776
rclavicle 1.05604e-014 -2.69353e-014
rhumerus -31.0536 -1.88739 -81.9469
rradius 22.7487
rwrist 5.17152
rhand -17.4301 26.5496
rfingers 7.12502
rthumb 8.82033 -3.24604
lclavicle 1.05604e-014 -2.69353e-014
lhumerus -43.0447 3.31713 82.3265
lradius 24.0813
lwrist -27.3852
lhand -1.6454 21.1708
lfingers 7.12502
lthumb 24.0135 49.6886
rfemur -12.2461 3.9245 31.7535
rtibia 27.2713
rfoot -14.7708 -9.17499
rtoes 15.4255
lfemur -36.9238 1.54415 -16.6278
ltibia 68.7692
lfoot 1.60571 2.19985
ltoes -8.46774
311
root 8.99179 16.598 17.8362 4.28163 -1.75797 -5.63038
lowerback 2.6971 0.111117 4.77586
upperback -3.41103 0.486014 2.08087
thorax -5.03228 0.105238 -0.552029
lowerneck -5.42703 -1.22957 -13.4441
upperneck 11.7604 -1.91739 13.2974
head 4.62054 -0.789388 6.32206
rclavicle 5.3237e-015 -2.69353e-014
rhumerus -30.3381 -0.740045 -82.4562
rradius 23.5583
rwrist 3.96686
rhand -17.1653 26.7397
rfingers 7.12502
rthumb 9.07584 -3.045
lclavicle 5.3237e-015 -2.69353e-014
lhumerus -43.5627 2.98749 82.5123
lradius 24.2727
lwrist -26.937
lhand -1.85101 20.7468
lfingers 7.12502
lthumb 23.8163 49.2905
rfemur -11.799 4.83775 32.3172
rtibia 27.4457
rfoot -15.2128 -10.0809
rtoes 13.5973
lfemur -38.1554 1.27203 -15.9589
ltibia 67.2014
lfoot 0.98226 2.56554
ltoes -4.18889
312
root 8.98717 16.5752 18.0092 4.29851 -2.13427 -5.97857
lowerback 2.93569 0.249622 5.06024
upperback -3.39949 0.703652 2.11679
thorax -5.14593 0.201048 -0.689658
lowerneck -5.42956 -1.27595 -13.4434
upperneck 11.501 -1.97278 13.3973
head 4.55131 -0.810643 6.34648
rclavicle 4.34841e-015 6.65929e-015
rhumerus -29.7474 0.249862 -82.9139
rradius 24.5768
rwrist 2.78196
rhand -17.0365 26.6265
rfingers 7.12502
rthumb 9.20016 -3.15279
lclavicle 4.34841e-015 6.65929e-015
lhumerus -44.2237 2.258 82.944
lradius 24.6882
lwrist -25.9921
lhand -1.83624 20.7437
lfingers 7.12502
lthumb 23.8304 49.2856
rfemur -11.0562 5.7716 32.7966
rtibia 27.4318
rfoot -15.2764 -10.9595
rtoes 10.5048
lfemur -38.9439 1.21995 -15.4212
ltibia 65.3811
lfoot 0.329329 2.79637
ltoes -6.49729
313
root 8.98338 16.5599 18.1857 4.2876 -2.38472 -5.79938
lowerback 3.20115 0.368268 4.83046
upperback -3.42715 0.865339 2.02919
thorax -5.31922 0.284259 -0.666268
lowerneck -5.25959 -1.25927 -13.3812
upperneck 11.2086 -1.95023 13.3702
head 4.43043 -0.803412 6.32165
rclavicle -1.32782e-014 -7.15625e-015
rhumerus -29.1771 0.971031 -83.2084
rradius 25.5717
rwrist 1.69675
rhand -17.1449 26.6323
rfingers 7.12502
rthumb 9.09551 -3.15154
lclavicle -1.32782e-014 -7.15625e-015
lhumerus -44.9096 1.50528 83.443
lradius 25.0796
lwrist -25.2261
lhand -1.35024 21.0361
lfingers 7.12502
lthumb 24.2965 49.5164
rfemur -10.1968 6.21202 32.6812
rtibia 27.21
rfoot -15.5162 -11.4061
rtoes 7.58539
lfemur -39.4865 1.02518 -15.5019
ltibia 63.2661
lfoot -0.157663 3.03996
ltoes -13.2501
314
root 8.97993 16.5441 18.3627 4.58709 -2.48572 -6.1654
lowerback 3.12325 0.454651 5.14993
upperback -3.50554 0.999509 2.07893
thorax -5.3488 0.337665 -0.801982
lowerneck -4.925 -1.20857 -13.3033
upperneck 10.726 -1.88945 13.365
head 4.21914 -0.780904 6.29965
rclavicle 1.23666e-014 2.127e-014
rhumerus -28.4708 1.60948 -83.4732
rradius 26.377
rwrist 0.988635
rhand -17.8152 27.1942
rfingers 7.12502
rthumb 8.44872 -2.61684
lclavicle 1.23666e-014 2.127e-014
lhumerus -45.4803 1.44911 83.5028
lradius 25.2597
lwrist -25.3616
lhand -1.43353 21.0109
lfingers 7.12502
lthumb 24.2166 49.5019
rfemur -9.67016 6.39479 33.1146
rtibia 26.9834
rfoot -15.76 -11.696
rtoes 5.48041
lfemur -40.428 0.864546 -14.8954
ltibia 60.9664
lfoot -0.472669 3.30317
ltoes -13.2999
315
root 8.98245 16.5252 18.5399 4.91719 -2.5896 -6.79246
lowerback 2.93175 0.508296 5.77254
upperback -3.52883 1.09749 2.19351
thorax -5.25458 0.366105 -1.03465
lowerneck -4.50273 -1.11508 -13.4315
upperneck 10.1423 -1.78345 13.6387
head 3.95967 -0.734058 6.40554
rclavicle -7.10189e-015 5.51627e-015
rhumerus -27.7568 2.45225 -83.7703
rradius 27.2498
rwrist 0.630681
rhand -18.502 27.665
rfingers 7.12502
rthumb 7.78583 -2.17168
lclavicle -7.10189e-015 5.51627e-015
lhumerus -46.0389 1.66264 83.4464
lradius 25.4698
lwrist -25.6953
lhand -2.13551 20.7536
lfingers 7.12502
lthumb 23.5434 49.3327
rfemur -9.1825 6.54721 33.7979
rtibia 26.8138
rfoot -15.928 -11.8404
rtoes 4.74581
lfemur -41.2346 0.680022 -13.9831
ltibia 58.3746
lfoot -0.75738 3.86354
ltoes -9.48055
316
root 8.98895 16.5133 18.7225 4.92793 -2.70244 -6.61657
lowerback 3.02766 0.537002 5.65073
upperback -3.51158 1.13077 2.0854
thorax -5.28825 0.384451 -1.08276
lowerneck -4.2009 -1.04951 -13.6871
upperneck 9.74547 -1.71537 14.0194
head 3.78352 -0.702802 6.57041
rclavicle -2.10246e-014 -3.73715e-014
rhumerus -27.2155 3.12876 -83.928
rradius 28.251
rwrist 0.477816
rhand -18.8092 27.9845
rfingers 7.12502
rthumb 7.48933 -1.86288
lclavicle -2.10246e-014 -3.73715e-014
lhumerus -46.5378 1.38461 83.6833
lradius 25.55
lwrist -25.2871
lhand -2.70182 20.4447
lfingers 7.12502
lthumb 23.0001 49.0925
rfemur -8.29202 6.55849 33.632
rtibia 26.6082
rfoot -16.3803 -11.8198
rtoes 4.68998
lfemur -41.2679 0.17674 -13.958
ltibia 55.4071
lfoot -1.02147 4.7551
ltoes -6.84906
317
root 8.9944 16.5111 18.9109 4.86716 -2.81254 -5.99518
lowerback 3.11699 0.588915 5.12062
upperback -3.46673 1.16405 1.85163
thorax -5.2911 0.4172 -1.03396
lowerneck -4.24861 -1.10814 -13.8085
upperneck 9.6533 -1.78436 14.1393
head 3.77603 -0.7343 6.62623
rclavicle 1.2942e-014 -1.76421e-015
rhumerus -26.5529 3.41856 -83.9547
rradius 29.019
rwrist 0.316184
rhand -19.1927 28.2205
rfingers 7.12502
rthumb 7.11916 -1.63976
lclavicle 1.2942e-014 -1.76421e-015
lhumerus -46.9093 1.20692 83.8509
lradius 25.3653
lwrist -24.9788
lhand -3.27753 20.2007
lfingers 7.12502
lthumb 22.4476 48.9162
rfemur -7.33547 6.33338 32.9761
rtibia 26.3973
rfoot -16.9664 -11.7942
rtoes 3.64263
lfemur -40.9628 -0.459378 -14.4031
ltibia 52.1411
lfoot -1.1929 5.72784
ltoes -5.42959
318
root 8.99983 16.5074 19.1018 4.98821 -2.81358 -5.67982
lowerback 2.89942 0.646724 4.92231
upperback -3.40612 1.20302 1.64528
thorax -5.09855 0.444942 -1.13733
lowerneck -4.65729 -1.31219 -13.4996
upperneck 9.90015 -2.03941 13.9258
head 3.953 -0.844369 6.49508
rclavicle -1.32441e-014 5.11871e-015
rhumerus -25.7832 3.8507 -84.1628
rradius 29.6459
rwrist -0.383326
rhand -19.8841 28.0822
rfingers 7.12502
rthumb 6.4517 -1.79953
lclavicle -1.32441e-014 5.11871e-015
lhumerus -47.2037 1.61457 83.5188
lradius 25.0658
lwrist -25.5431
lhand -4.13399 19.7807
lfingers 7.12502
lthumb 21.6253 48.5931
rfemur -6.58299 5.96881 32.6195
rtibia 26.1302
rfoot -17.4425 -11.6237
rtoes 3.22538
lfemur -40.8414 -1.06456 -14.512
ltibia 48.6844
lfoot -0.960147 6.66855
ltoes -5.44763
319
root 9.00708 16.4914 19.2931 5.26312 -2.59467 -5.82841
lowerback 2.62135 0.616543 5.17423
upperback -3.44335 1.15558 1.58614
thorax -4.97705 0.413028 -1.33209
lowerneck -4.89446 -1.4279 -13.3146
upperneck 10.0573 -2.19277 13.8615
head 4.06033 -0.907851 6.43706
rclavicle 1.1764e-014 -4.3186e-014
rhumerus -25.1224 4.44121 -84.3938
rradius 30.2054
rwrist -1.05876
rhand -20.6641 28.3255
rfingers 7.12502
rthumb 5.6987 -1.57785
lclavicle 1.1764e-014 -4.3186e-014
lhumerus -47.6174 2.15258 83.0992
lradius 24.887
lwrist -26.062
lhand -4.7687 19.515
lfingers 7.12502
lthumb 21.0156 48.3964
rfemur -5.94454 5.72025 32.776
rtibia 25.6973
rfoot -17.8311 -11.446
rtoes 4.67264
lfemur -41.0104 -1.77235 -14.0315
ltibia 45.107
lfoot -0.339816 7.55385
ltoes -6.05393
320
root 9.01487 16.4665 19.4854 5.56759 -2.21264 -6.26346
lowerback 2.25822 0.487116 5.61009
upperback -3.43426 0.984074 1.75753
thorax -4.76993 0.320497 -1.38173
lowerneck -5.00911 -1.3741 -13.489
upperneck 9.94594 -2.09106 13.9617
head 4.03476 -0.855656 6.50362
rclavicle -5.90783e-015 -8.1129e-015
rhumerus -24.1973 4.70127 -84.2744
rradius 30.4091
rwrist -0.850274
rhand -20.9479 29.4239
rfingers 7.12502
rthumb 5.42462 -0.486671
lclavicle -5.90783e-015 -8.1129e-015
lhumerus -47.8807 2.71503 82.9909
lradius 24.5425
lwrist -26.0321
lhand -5.50869 19.8529
lfingers 7.12502
lthumb 20.3046 48.8115
rfemur -5.21134 5.62782 33.2763
rtibia 25.0738
rfoot -18.1503 -11.5663
rtoes 5.82095
lfemur -41.2043 -2.7083 -13.077
ltibia 41.4492
lfoot 0.10146 8.40595
ltoes -7.1226
321
root 9.01959 16.4514 19.6841 5.59541 -1.92601 -6.19694
lowerback 1.94338 0.375457 5.45257
upperback -3.25916 0.798982 1.83198
thorax -4.42084 0.246647 -1.20295
lowerneck -5.11595 -1.32957 -13.6652
upperneck 9.69167 -1.98963 14.0541
head 3.96529 -0.804208 6.56527
rclavicle 4.2402e-015 6.75557e-016
rhumerus -23.2563 4.90703 -84.0813
rradius 30.8168
rwrist -0.501828
rhand -20.9805 30.1546
rfingers 7.12502
rthumb 5.39317 0.243266
lclavicle 4.2402e-015 6.75557e-016
lhumerus -47.9404 3.58858 82.7044
lradius 23.9971
lwrist -26.1785
lhand -6.34163 19.8376
lfingers 7.12502
lthumb 19.5039 48.8794
rfemur -4.02676 5.36874 33.272
rtibia 24.2435
rfoot -18.2151 -11.9051
rtoes 4.36707
lfemur -40.8635 -3.9124 -12.5542
ltibia 37.7296
lfoot -0.00953991 9.44006
ltoes -6.84199
322
root 9.02376 16.4449 19.8808 5.4887 -1.89585 -5.98269
lowerback 1.94352 0.393448 5.1982
upperback -3.17582 0.805445 1.74703
thorax -4.33361 0.260068 -1.14952
lowerneck -4.91071 -1.32176 -13.5364
upperneck 9.37376 -1.98301 13.9988
head 3.83342 -0.806094 6.51923
rclavicle 1.44356e-014 2.21645e-014
rhumerus -22.7368 5.12404 -84.0672
rradius 31.5128
rwrist -0.495162
rhand -21.3674 30.1856
rfingers 7.12502
rthumb 5.01958 0.265029
lclavicle 1.44356e-014 2.21645e-014
lhumerus -48.3102 4.47912 82.0666
lradius 23.8616
lwrist -26.605
lhand -6.33201 19.5058
lfingers 7.12502
lthumb 19.5132 48.5466
rfemur -2.66182 5.12896 33.0882
rtibia 23.3222
rfoot -18.1784 -12.2053
rtoes 2.44466
lfemur -40.2652 -5.10785 -12.1163
ltibia 34.0015
lfoot -0.367184 10.7397
ltoes -5.53067
